{
    "streams": [
        {
            "index": 0,
            "codec_name": "prores",
            "codec_long_name": "Apple ProRes (iCodec Pro)",
            "profile": "Standard",
            "codec_type": "video",
            "codec_tag_string": "apcn",
            "codec_tag": "0x6e637061",
            "width": 3840,
            "height": 2160,
            "coded_width": 3840,
            "coded_height": 2160,
            "closed_captions": 0,
            "film_grain": 0,
            "has_b_frames": 0,
            "sample_aspect_ratio": "1:1",
            "display_aspect_ratio": "16:9",
            "pix_fmt": "yuv422p10le",
            "level": -99,
            "color_space": "bt709",
            "color_transfer": "bt709",
            "color_primaries": "bt709",
            "field_order": "progressive",
            "refs": 1,
            "id": "0x1",
            "r_frame_rate": "24/1",
            "avg_frame_rate": "24/1",
            "time_base": "1/24",
            "start_pts": 0,
            "start_time": "0.000000",
            "duration_ts": 1834,
            "duration": "76.416667",
            "bit_rate": "472540618",
            "bits_per_raw_sample": "10",
            "nb_frames": "1834",
            "disposition": {
                "default": 1,
                "dub": 0,
                "original": 0,
                "comment": 0,
                "lyrics": 0,
                "karaoke": 0,
                "forced": 0,
                "hearing_impaired": 0,
                "visual_impaired": 0,
                "clean_effects": 0,
                "attached_pic": 0,
                "timed_thumbnails": 0,
                "non_diegetic": 0,
                "captions": 0,
                "descriptions": 0,
                "metadata": 0,
                "dependent": 0,
                "still_image": 0
            },
            "tags": {
                "creation_time": "2025-04-24T16:26:59.000000Z",
                "language": "eng",
                "handler_name": "\u0019Apple Video Media Handler",
                "vendor_id": "appl",
                "encoder": "Apple ProRes 422",
                "timecode": "12:26:59:04"
            }
        },
        {
            "index": 1,
            "codec_type": "data",
            "codec_tag_string": "tmcd",
            "codec_tag": "0x64636d74",
            "id": "0x2",
            "r_frame_rate": "0/0",
            "avg_frame_rate": "24/1",
            "time_base": "1/24",
            "start_pts": 0,
            "start_time": "0.000000",
            "duration_ts": 1834,
            "duration": "76.416667",
            "nb_frames": "1",
            "extradata_size": 18,
            "disposition": {
                "default": 1,
                "dub": 0,
                "original": 0,
                "comment": 0,
                "lyrics": 0,
                "karaoke": 0,
                "forced": 0,
                "hearing_impaired": 0,
                "visual_impaired": 0,
                "clean_effects": 0,
                "attached_pic": 0,
                "timed_thumbnails": 0,
                "non_diegetic": 0,
                "captions": 0,
                "descriptions": 0,
                "metadata": 0,
                "dependent": 0,
                "still_image": 0
            },
            "tags": {
                "creation_time": "2025-04-24T16:26:59.000000Z",
                "language": "eng",
                "handler_name": "Time Code Media Handler",
                "timecode": "12:26:59:04"
            }
        },
        {
            "index": 2,
            "codec_name": "pcm_s24le",
            "codec_long_name": "PCM signed 24-bit little-endian",
            "codec_type": "audio",
            "codec_tag_string": "lpcm",
            "codec_tag": "0x6d63706c",
            "sample_fmt": "s32",
            "sample_rate": "48000",
            "channels": 16,
            "bits_per_sample": 24,
            "initial_padding": 0,
            "id": "0x3",
            "r_frame_rate": "0/0",
            "avg_frame_rate": "0/0",
            "time_base": "1/48000",
            "start_pts": 0,
            "start_time": "0.000000",
            "duration_ts": 3668000,
            "duration": "76.416667",
            "bit_rate": "18432000",
            "bits_per_raw_sample": "24",
            "nb_frames": "3668000",
            "disposition": {
                "default": 1,
                "dub": 0,
                "original": 0,
                "comment": 0,
                "lyrics": 0,
                "karaoke": 0,
                "forced": 0,
                "hearing_impaired": 0,
                "visual_impaired": 0,
                "clean_effects": 0,
                "attached_pic": 0,
                "timed_thumbnails": 0,
                "non_diegetic": 0,
                "captions": 0,
                "descriptions": 0,
                "metadata": 0,
                "dependent": 0,
                "still_image": 0
            },
            "tags": {
                "creation_time": "2025-04-24T16:26:59.000000Z",
                "language": "eng",
                "handler_name": "\u0019Apple Sound Media Handler",
                "vendor_id": "[0][0][0][0]",
                "timecode": "12:26:59:04"
            }
        }
    ],
    "format": {
        "filename": "/Volumes/_capture/_capture/20250424/hyper_h_2504241626_0003.mov",
        "nb_streams": 3,
        "nb_programs": 0,
        "format_name": "mov,mp4,m4a,3gp,3g2,mj2",
        "format_long_name": "QuickTime / MOV",
        "start_time": "0.000000",
        "duration": "76.416667",
        "size": "4689844494",
        "bit_rate": "490976084",
        "probe_score": 100,
        "tags": {
            "major_brand": "qt  ",
            "minor_version": "537199360",
            "compatible_brands": "qt  ",
            "creation_time": "2025-04-24T16:26:59.000000Z",
            "com.apple.proapps.reel": "1",
            "com.apple.proapps.scene": "1",
            "com.apple.proapps.shot": "99",
            "com.blackmagic-design.camera.environment": "interior",
            "com.blackmagic-design.camera.dayNight": "day",
            "com.apple.proapps.cameraName": "D",
            "com.blackmagic-design.camera.dateRecorded": "20250424"
        }
    }
}
